<?xml version="1.0" encoding="utf-8"?>
<!-- Generator: Adobe Illustrator 16.0.4, SVG Export Plug-In . SVG Version: 6.00 Build 0)  -->
<!DOCTYPE svg PUBLIC "-//W3C//DTD SVG 1.1//EN" "http://www.w3.org/Graphics/SVG/1.1/DTD/svg11.dtd">
<svg version="1.1" id="Layer_1" xmlns="http://www.w3.org/2000/svg" xmlns:xlink="http://www.w3.org/1999/xlink" x="0px" y="0px"
	 width="176.5px" height="176.5px" viewBox="0 0 176.5 176.5" enable-background="new 0 0 176.5 176.5" xml:space="preserve">
<path fill="#F24C58" d="M172.602,28.846L147.996,4.24c-1.129-1.125-2.652-1.758-4.246-1.758c-1.59,0-3.117,0.633-4.242,1.758
	c-8.188,8.192-11.446,19.117-9.246,28L61.75,100.752l-12.43-12.43c-1.125-1.125-2.652-1.758-4.242-1.758
	c-1.594,0-3.117,0.633-4.242,1.758l-28.461,28.458c-6.367,6.37-9.875,14.836-9.875,23.844c0,9.004,3.508,17.473,9.875,23.84
	c6.367,6.371,14.836,9.879,23.844,9.879c9.004,0,17.472-3.508,23.84-9.879l28.46-28.457c1.125-1.125,1.758-2.653,1.758-4.242
	c0-1.594-0.633-3.118-1.758-4.243l-12.434-12.433L144.578,46.6c1.812,0.461,3.723,0.707,5.695,0.707
	c7.848,0,15.988-3.637,22.328-9.977c1.125-1.125,1.758-2.648,1.758-4.242C174.359,31.498,173.727,29.971,172.602,28.846
	L172.602,28.846z M150.273,35.307c-1.852,0-4.465-0.407-6.398-2.344c-3.387-3.383-3.016-9.719,0.402-15.469l15.07,15.074
	C156.391,34.326,153.219,35.307,150.273,35.307L150.273,35.307z M150.273,35.307"/>
<rect x="2.5" y="2.5" fill="none" width="171.84" height="171.981"/>
</svg>
