<?xml version="1.0" encoding="utf-8"?>
<!-- Generator: Adobe Illustrator 16.0.4, SVG Export Plug-In . SVG Version: 6.00 Build 0)  -->
<!DOCTYPE svg PUBLIC "-//W3C//DTD SVG 1.1//EN" "http://www.w3.org/Graphics/SVG/1.1/DTD/svg11.dtd">
<svg version="1.1" id="Layer_1" xmlns="http://www.w3.org/2000/svg" xmlns:xlink="http://www.w3.org/1999/xlink" x="0px" y="0px"
	 width="66.667px" height="76px" viewBox="0 0 66.667 76" enable-background="new 0 0 66.667 76" xml:space="preserve">
<path fill="#EA4D59" d="M62.359,52.271l-7.465-4.312l6.301-3.754c1.012-0.488,1.328-1.848,0.75-2.848
	c-0.586-1.023-1.852-1.238-2.812-0.68l-8.398,4.922l-13.352-7.77l13.352-7.688l8.398,4.91c0.262,0.191,0.602,0.304,0.977,0.304
	c0.711,0,1.348-0.335,1.836-0.976c0.562-1.016,0.262-2.359-0.75-2.848l-6.301-3.75l7.465-4.312c0.973-0.563,1.305-1.817,0.75-2.848
	c-0.531-0.992-1.848-1.336-2.852-0.754l-7.5,4.352l-0.113-7.504c-0.016-1.16-0.898-2.094-2.062-2.094
	c-1.16,0-2.07,1.008-2.062,2.094l0.074,9.906L35.32,34.311V18.708l8.363-4.766c0.977-0.554,1.402-1.839,0.824-2.847
	c-0.586-1.028-1.789-1.328-2.812-0.754l-6.375,3.601V5.431c0-1.16-0.938-2.098-2.097-2.098c-1.164,0-2.063,0.938-2.063,2.098v8.59
	l-6.601-3.68c-1.028-0.567-2.2-0.246-2.774,0.754c-0.586,1.023-0.223,2.277,0.785,2.847l8.59,4.84v15.446l-13.578-7.832l0.078-9.68
	c0.113-1.086-0.863-2.094-2.027-2.094h-0.074c-1.086,0-2.051,0.934-2.063,2.094l-0.074,7.281l-7.313-4.199
	c-1.019-0.594-2.281-0.242-2.812,0.742c-0.559,1.039-0.27,2.266,0.75,2.856l7.387,4.273l-6.45,3.863
	c-1.011,0.489-1.328,1.848-0.711,2.848c0.395,0.648,0.973,0.976,1.762,0.976c0.41,0,0.754-0.101,1.086-0.304l8.438-4.985
	l13.539,7.762l-13.539,7.84l-8.438-4.992c-1.012-0.59-2.32-0.312-2.848,0.68c-0.558,1.031-0.257,2.273,0.711,2.848l6.45,3.824
	l-7.387,4.312c-1.016,0.594-1.348,1.84-0.75,2.855c0.418,0.703,0.976,1.047,1.762,1.047c0.187,0,0.562-0.109,1.05-0.301l7.313-4.203
	l0.074,7.281c0.012,1.16,0.977,2.055,2.063,2.055h0.074c1.164,0,2.035-0.965,2.027-2.133l-0.078-9.672l13.578-7.762v15.367
	l-8.59,4.84c-1.023,0.578-1.382,1.832-0.785,2.848c0.414,0.715,0.973,1.059,1.762,1.059c0.375,0,0.719-0.066,1.012-0.234
	l6.601-3.742v8.734c0,1.16,0.899,2.066,2.063,2.066c1.16,0,2.097-0.906,2.097-2.066v-8.59l6.375,3.598
	c0.293,0.168,0.637,0.234,0.977,0.234c0.824,0,1.434-0.336,1.836-1.059c0.57-1.008,0.203-2.27-0.824-2.848l-8.363-4.688V41.431
	l13.273,7.688l-0.074,9.824c-0.008,1.168,0.902,2.133,2.062,2.133c1.164,0,2.047-0.895,2.062-2.055l0.113-7.543l7.5,4.391
	c0.289,0.168,0.676,0.227,1.09,0.227c0.785,0,1.363-0.328,1.762-0.977C63.723,54.119,63.332,52.83,62.359,52.271L62.359,52.271z
	 M62.359,52.271"/>
<rect x="3" y="3.333" fill="none" width="60.96" height="70"/>
</svg>
